<?xml version="1.0" encoding="UTF-8"?>
<svg width="165px" height="35px" viewBox="0 0 165 35" version="1.1" xmlns="http://www.w3.org/2000/svg" xmlns:xlink="http://www.w3.org/1999/xlink">
    <!-- Generator: Sketch 52.6 (67491) - http://www.bohemiancoding.com/sketch -->
    <title>Group 18</title>
    <desc>Created with Sketch.</desc>
    <defs>
        <filter x="-11.4%" y="-76.1%" width="122.9%" height="252.2%" filterUnits="objectBoundingBox" id="filter-1">
            <feOffset dx="2" dy="2" in="SourceAlpha" result="shadowOffsetOuter1"></feOffset>
            <feGaussianBlur stdDeviation="3.5" in="shadowOffsetOuter1" result="shadowBlurOuter1"></feGaussianBlur>
            <feColorMatrix values="0 0 0 0 0   0 0 0 0 0   0 0 0 0 0  0 0 0 0.5 0" type="matrix" in="shadowBlurOuter1" result="shadowMatrixOuter1"></feColorMatrix>
            <feMerge>
                <feMergeNode in="shadowMatrixOuter1"></feMergeNode>
                <feMergeNode in="SourceGraphic"></feMergeNode>
            </feMerge>
        </filter>
        <polygon id="path-2" points="0.0602 0.838 21.5202 0.838 21.5202 22 0.0602 22"></polygon>
    </defs>
    <g id="Page-1" stroke="none" stroke-width="1" fill="none" fill-rule="evenodd">
        <g id="Group-18" filter="url(#filter-1)" transform="translate(4.000000, 4.000000)">
            <path d="M2.7261,9.2051 C2.7261,5.1021 2.7261,4.3471 2.6721,3.4831 C2.6181,2.5651 2.4021,2.1341 1.5111,1.9441 C1.2951,1.8911 0.8361,1.8631 0.4591,1.8631 C0.1621,1.8631 0.0001,1.8091 0.0001,1.6201 C0.0001,1.4321 0.1891,1.3781 0.5941,1.3781 C2.0241,1.3781 3.7251,1.4591 4.4801,1.4591 C5.5871,1.4591 7.1531,1.3781 8.3941,1.3781 C11.7681,1.3781 12.9831,2.5121 13.4151,2.9161 C14.0091,3.4831 14.7651,4.6971 14.7651,6.1281 C14.7651,9.9611 11.9581,12.6601 8.1251,12.6601 C7.9891,12.6601 7.6921,12.6601 7.5581,12.6341 C7.4231,12.6061 7.2341,12.5791 7.2341,12.3911 C7.2341,12.1751 7.4231,12.0941 7.9891,12.0941 C9.5011,12.0941 11.6061,10.3931 11.6061,7.6401 C11.6061,6.7491 11.5251,4.9401 10.0151,3.5911 C9.0421,2.7001 7.9351,2.5381 7.3151,2.5381 C6.9101,2.5381 6.5051,2.5651 6.2621,2.6461 C6.1271,2.7001 6.0461,2.8621 6.0461,3.1591 L6.0461,13.9561 C6.0461,16.4391 6.0461,18.5721 6.1811,19.7321 C6.2621,20.4881 6.4241,21.0821 7.2341,21.1901 C7.6121,21.2441 8.2061,21.2981 8.6101,21.2981 C8.9071,21.2981 9.0421,21.3791 9.0421,21.5151 C9.0421,21.7031 8.8261,21.7841 8.5291,21.7841 C6.7481,21.7841 5.0471,21.7031 4.3461,21.7031 C3.7251,21.7031 2.0241,21.7841 0.9451,21.7841 C0.5941,21.7841 0.4051,21.7031 0.4051,21.5151 C0.4051,21.3791 0.5131,21.2981 0.8361,21.2981 C1.2421,21.2981 1.5651,21.2441 1.8091,21.1901 C2.3481,21.0821 2.4831,20.4881 2.5911,19.7061 C2.7261,18.5721 2.7261,16.4391 2.7261,13.9561 L2.7261,9.2051 Z" id="Fill-1" fill="#231916"></path>
            <path d="M23.0566,15.1172 C23.0566,18.0592 23.0566,19.5162 23.5696,19.9482 C23.9746,20.3002 24.8916,20.4342 26.7276,20.4342 C27.9956,20.4342 28.9136,20.4072 29.5076,19.7872 C29.8046,19.4892 30.0476,18.8422 30.1016,18.4102 C30.1286,18.1942 30.1826,18.0592 30.3706,18.0592 C30.5336,18.0592 30.5876,18.3022 30.5876,18.5722 C30.5876,18.8422 30.4256,20.5422 30.2366,21.2172 C30.0746,21.7302 29.9666,21.8382 28.7246,21.8382 C27.0246,21.8382 25.6476,21.8112 24.4596,21.7572 C23.2726,21.7302 22.2736,21.7032 21.3016,21.7032 C21.0326,21.7032 20.5196,21.7302 19.9526,21.7302 C19.3856,21.7572 18.7916,21.7842 18.3056,21.7842 C18.0086,21.7842 17.8466,21.7032 17.8466,21.5412 C17.8466,21.4332 17.9276,21.2982 18.2246,21.2982 C18.5756,21.2982 18.8456,21.2712 19.0616,21.2172 C19.5476,21.1092 19.6826,20.6782 19.7636,20.0032 C19.8706,19.0312 19.8706,17.2222 19.8706,15.1172 L19.8706,11.0682 C19.8706,7.5862 19.8706,6.9382 19.8446,6.2092 C19.7896,5.4272 19.5746,5.1832 18.8186,4.9682 C18.6296,4.9142 18.3326,4.8872 18.0356,4.8872 C17.7656,4.8872 17.6306,4.8052 17.6306,4.6432 C17.6306,4.4812 17.7926,4.4282 18.1436,4.4282 C19.2506,4.4282 20.7616,4.4812 21.4106,4.4812 C21.9766,4.4812 23.9196,4.4282 24.8376,4.4282 C25.1886,4.4282 25.3506,4.4812 25.3506,4.6432 C25.3506,4.8052 25.2156,4.8872 24.9186,4.8872 C24.6496,4.8872 24.2716,4.9142 24.0006,4.9682 C23.3536,5.0752 23.1636,5.3992 23.1106,6.2092 C23.0566,6.9382 23.0566,7.5862 23.0566,11.0682 L23.0566,15.1172 Z" id="Fill-3" fill="#231916"></path>
            <path d="M41.415,14.7119 C41.523,14.7119 41.55,14.6579 41.523,14.5769 L39.282,8.8269 C39.256,8.7459 39.228,8.6109 39.175,8.6109 C39.094,8.6109 39.066,8.7459 39.04,8.8269 L36.745,14.5499 C36.691,14.6579 36.745,14.7119 36.826,14.7119 L41.415,14.7119 Z M36.341,15.9809 C36.205,15.9809 36.179,16.0079 36.124,16.1429 L34.855,19.2469 C34.613,19.8139 34.505,20.3809 34.505,20.6499 C34.505,21.0559 34.721,21.2979 35.449,21.2979 L35.801,21.2979 C36.098,21.2979 36.151,21.4059 36.151,21.5409 C36.151,21.7309 36.017,21.7839 35.773,21.7839 C34.991,21.7839 33.884,21.7029 33.128,21.7029 C32.886,21.7029 31.616,21.7839 30.375,21.7839 C30.078,21.7839 29.943,21.7309 29.943,21.5409 C29.943,21.4059 30.024,21.2979 30.213,21.2979 C30.429,21.2979 30.699,21.2719 30.915,21.2719 C31.994,21.1089 32.399,20.4069 32.886,19.2469 L39.094,4.9139 C39.363,4.2659 39.553,3.9959 39.796,3.9959 C40.146,3.9959 40.254,4.2119 40.497,4.7249 C41.064,5.9929 45.032,15.2789 46.544,18.7609 C47.462,20.8399 48.137,21.1369 48.568,21.2169 C48.919,21.2719 49.189,21.2979 49.459,21.2979 C49.675,21.2979 49.783,21.3789 49.783,21.5409 C49.783,21.7309 49.647,21.7839 48.757,21.7839 C47.92,21.7839 46.192,21.7839 44.195,21.7309 C43.764,21.7029 43.493,21.7029 43.493,21.5409 C43.493,21.4059 43.548,21.3249 43.79,21.2979 C43.952,21.2719 44.114,21.0559 44.007,20.7849 L42.171,16.1429 C42.117,16.0079 42.036,15.9809 41.928,15.9809 L36.341,15.9809 Z" id="Fill-5" fill="#231916"></path>
            <path d="M53.998,15.8184 C53.998,14.5774 53.782,14.0904 53.458,13.4164 C53.296,13.0654 50.058,8.0174 49.221,6.8024 C48.627,5.9664 48.141,5.4264 47.682,5.1834 C47.385,5.0214 46.98,4.8864 46.683,4.8864 C46.494,4.8864 46.332,4.8054 46.332,4.6434 C46.332,4.4814 46.494,4.4274 46.791,4.4274 C47.196,4.4274 48.977,4.4814 49.761,4.4814 C50.273,4.4814 51.38,4.4274 52.46,4.4274 C52.676,4.4274 52.811,4.4814 52.811,4.6434 C52.811,4.8334 52.648,4.8334 52.27,4.9404 C52.082,4.9944 51.946,5.1024 51.946,5.2914 C51.946,5.4804 52.055,5.7504 52.243,6.0744 C52.676,6.7764 55.779,12.1474 56.185,12.7964 C56.481,12.2554 59.37,7.3424 59.721,6.6414 C59.964,6.1284 60.071,5.7234 60.071,5.4264 C60.071,5.2114 59.964,4.9944 59.559,4.9144 C59.343,4.8594 59.127,4.8334 59.127,4.6434 C59.127,4.4814 59.262,4.4274 59.531,4.4274 C60.314,4.4274 61.151,4.4814 61.853,4.4814 C62.366,4.4814 63.931,4.4274 64.39,4.4274 C64.66,4.4274 64.822,4.4814 64.822,4.6164 C64.822,4.7784 64.633,4.8864 64.363,4.8864 C64.12,4.8864 63.688,4.9944 63.337,5.1564 C62.825,5.3994 62.608,5.6154 62.095,6.2364 C61.313,7.1544 57.912,12.6064 57.48,13.5784 C57.129,14.4154 57.184,15.1174 57.184,15.8734 L57.184,17.7084 C57.184,18.0864 57.184,19.0314 57.237,20.0034 C57.291,20.6774 57.507,21.1094 58.209,21.2164 C58.56,21.2714 59.073,21.2974 59.396,21.2974 C59.667,21.2974 59.802,21.4334 59.802,21.5414 C59.802,21.7034 59.612,21.7844 59.289,21.7844 C57.804,21.7844 56.212,21.7034 55.563,21.7034 C54.97,21.7034 53.377,21.7844 52.486,21.7844 C52.163,21.7844 51.974,21.7304 51.974,21.5414 C51.974,21.4334 52.082,21.2974 52.352,21.2974 C52.676,21.2974 52.973,21.2714 53.188,21.2164 C53.674,21.1094 53.863,20.6774 53.917,20.0034 C53.998,19.0314 53.998,18.0864 53.998,17.7084 L53.998,15.8184 Z" id="Fill-7" fill="#231916"></path>
            <g id="Group-11" transform="translate(73.000000, 0.162100)">
                <mask id="mask-3" fill="white">
                    <use xlink:href="#path-2"></use>
                </mask>
                <g id="Clip-10"></g>
                <path d="M19.3872,19.8135 C19.3872,20.5425 19.3602,20.5965 19.0362,20.7855 C17.2822,21.7035 14.6362,22.0005 12.5312,22.0005 C5.9172,22.0005 0.0602,18.8695 0.0602,11.4185 C0.0602,7.0995 2.3002,4.0775 4.7572,2.5915 C7.3482,1.0265 9.7502,0.8375 12.0182,0.8375 C13.8802,0.8375 16.2562,1.1615 16.7952,1.2695 C17.3632,1.3765 18.3072,1.5395 18.9282,1.5665 C19.2522,1.5935 19.3062,1.7015 19.3062,1.8905 C19.3062,2.1875 19.1172,2.9435 19.1172,6.3175 C19.1172,6.7495 19.0362,6.8835 18.8202,6.8835 C18.6312,6.8835 18.5772,6.7495 18.5502,6.5335 C18.4692,5.9125 18.3342,5.0485 17.6322,4.2925 C16.8232,3.4285 14.6632,2.1875 11.6132,2.1875 C10.1282,2.1875 8.1582,2.2945 6.2692,3.8605 C4.7572,5.1285 3.7852,7.1545 3.7852,10.4735 C3.7852,16.2775 7.4832,20.6235 13.1792,20.6235 C13.8802,20.6235 14.8252,20.6235 15.4732,20.3265 C15.8782,20.1375 15.9862,19.7865 15.9862,19.3275 L15.9862,16.7905 C15.9862,15.4405 15.9862,14.4155 15.9592,13.6055 C15.9322,12.6875 15.6892,12.2555 14.7982,12.0665 C14.5822,12.0125 14.1232,11.9855 13.7452,11.9855 C13.5022,11.9855 13.3402,11.9315 13.3402,11.7695 C13.3402,11.5535 13.5302,11.5005 13.9082,11.5005 C15.3112,11.5005 17.0122,11.5815 17.8222,11.5815 C18.6582,11.5815 20.0892,11.5005 20.9802,11.5005 C21.3302,11.5005 21.5202,11.5535 21.5202,11.7695 C21.5202,11.9315 21.3582,11.9855 21.1682,11.9855 C20.9522,11.9855 20.7642,12.0125 20.4402,12.0665 C19.7112,12.2015 19.4412,12.6605 19.4142,13.6055 C19.3872,14.4155 19.3872,15.4945 19.3872,16.8445 L19.3872,19.8135 Z" id="Fill-9" fill="#231916" mask="url(#mask-3)"></path>
            </g>
            <path d="M105.4849,14.7119 C105.5929,14.7119 105.6199,14.6579 105.5929,14.5769 L103.3519,8.8269 C103.3259,8.7459 103.2979,8.6109 103.2449,8.6109 C103.1639,8.6109 103.1359,8.7459 103.1099,8.8269 L100.8149,14.5499 C100.7609,14.6579 100.8149,14.7119 100.8959,14.7119 L105.4849,14.7119 Z M100.4109,15.9809 C100.2749,15.9809 100.2489,16.0079 100.1939,16.1429 L98.9249,19.2469 C98.6829,19.8139 98.5749,20.3809 98.5749,20.6499 C98.5749,21.0559 98.7909,21.2979 99.5189,21.2979 L99.8709,21.2979 C100.1679,21.2979 100.2209,21.4059 100.2209,21.5409 C100.2209,21.7309 100.0869,21.7839 99.8429,21.7839 C99.0609,21.7839 97.9539,21.7029 97.1979,21.7029 C96.9559,21.7029 95.6859,21.7839 94.4449,21.7839 C94.1479,21.7839 94.0129,21.7309 94.0129,21.5409 C94.0129,21.4059 94.0939,21.2979 94.2829,21.2979 C94.4989,21.2979 94.7689,21.2719 94.9849,21.2719 C96.0639,21.1089 96.4689,20.4069 96.9559,19.2469 L103.1639,4.9139 C103.4329,4.2659 103.6229,3.9959 103.8659,3.9959 C104.2159,3.9959 104.3239,4.2119 104.5669,4.7249 C105.1339,5.9929 109.1019,15.2789 110.6139,18.7609 C111.5319,20.8399 112.2069,21.1369 112.6379,21.2169 C112.9889,21.2719 113.2589,21.2979 113.5289,21.2979 C113.7449,21.2979 113.8529,21.3789 113.8529,21.5409 C113.8529,21.7309 113.7169,21.7839 112.8269,21.7839 C111.9899,21.7839 110.2619,21.7839 108.2649,21.7309 C107.8339,21.7029 107.5629,21.7029 107.5629,21.5409 C107.5629,21.4059 107.6179,21.3249 107.8599,21.2979 C108.0219,21.2719 108.1839,21.0559 108.0769,20.7849 L106.2409,16.1429 C106.1869,16.0079 106.1059,15.9809 105.9979,15.9809 L100.4109,15.9809 Z" id="Fill-12" fill="#231916"></path>
            <path d="M117.8784,4.6162 C117.9334,4.2392 118.1494,4.0222 118.3374,4.0222 C118.5804,4.0222 118.7424,4.1312 119.0664,4.7522 L125.4374,17.4382 L131.8074,4.5902 C131.9954,4.2122 132.2124,4.0222 132.4284,4.0222 C132.6164,4.0222 132.8874,4.2652 132.9674,4.7522 L135.1274,18.8692 C135.3434,20.3002 135.5594,20.9202 136.2874,21.1372 C136.9624,21.3252 137.3404,21.3522 137.6374,21.3522 C137.8534,21.3522 138.0154,21.4332 138.0154,21.5682 C138.0154,21.7572 137.7454,21.8382 137.3954,21.8382 C136.8004,21.8382 133.4264,21.7572 132.4824,21.7032 C131.9154,21.6762 131.7794,21.5682 131.7794,21.4332 C131.7794,21.3252 131.8884,21.2442 132.0504,21.1902 C132.1854,21.1372 132.2384,20.8662 132.1574,20.2192 L130.8354,10.3122 L130.7544,10.3122 L125.6524,20.4622 C125.1124,21.5412 124.9784,21.7572 124.7074,21.7572 C124.4104,21.7572 124.1414,21.2982 123.7634,20.5962 C123.1964,19.5442 121.3074,16.0342 121.0364,15.3872 C120.8484,14.9552 119.4444,12.1752 118.6614,10.5822 L118.5804,10.5822 L117.4464,19.4352 C117.3934,19.8412 117.3654,20.1372 117.3654,20.5152 C117.3654,20.9472 117.6904,21.1092 118.0954,21.1902 C118.4994,21.2712 118.7154,21.2982 118.9314,21.2982 C119.1474,21.2982 119.3094,21.4062 119.3094,21.5142 C119.3094,21.7302 119.0934,21.7842 118.7424,21.7842 C117.7434,21.7842 116.6644,21.7032 116.2324,21.7032 C115.7734,21.7032 114.6404,21.7842 113.8844,21.7842 C113.6414,21.7842 113.4514,21.7302 113.4514,21.5142 C113.4514,21.4062 113.5874,21.2982 113.8294,21.2982 C114.0194,21.2982 114.1814,21.2982 114.5594,21.2442 C115.2064,21.1632 115.4224,20.2452 115.5304,19.4892 L117.8784,4.6162 Z" id="Fill-14" fill="#231916"></path>
            <path d="M141.9077,11.0684 C141.9077,7.5864 141.9077,6.9384 141.8817,6.2094 C141.8267,5.4264 141.6107,5.1834 140.8547,4.9674 C140.6667,4.9144 140.2617,4.8864 139.9107,4.8864 C139.6677,4.8864 139.5057,4.8054 139.5057,4.6434 C139.5057,4.4814 139.6947,4.4274 140.0457,4.4274 C141.2877,4.4274 142.7987,4.4814 143.4727,4.4814 C144.2287,4.4814 149.4927,4.5084 149.9517,4.4814 C150.3837,4.4554 150.7617,4.3744 150.9507,4.3464 C151.0857,4.3194 151.2207,4.2394 151.3287,4.2394 C151.4637,4.2394 151.4907,4.3464 151.4907,4.4554 C151.4907,4.6164 151.3547,4.8864 151.3017,5.9394 C151.2747,6.1824 151.2207,7.1804 151.1667,7.4514 C151.1387,7.5584 151.0857,7.8294 150.8967,7.8294 C150.7347,7.8294 150.7077,7.7204 150.7077,7.5324 C150.7077,7.3704 150.6797,6.9644 150.5457,6.6954 C150.3567,6.2904 150.1677,5.9664 148.9797,5.8584 C148.5747,5.8044 145.7407,5.7504 145.2557,5.7504 C145.1467,5.7504 145.0937,5.8314 145.0937,5.9664 L145.0937,11.6344 C145.0937,11.7694 145.1197,11.8784 145.2557,11.8784 C145.7957,11.8784 148.8727,11.8784 149.4117,11.8244 C149.9787,11.7694 150.3027,11.6884 150.5457,11.4724 C150.7347,11.3104 150.8157,11.1754 150.9237,11.1754 C151.0317,11.1754 151.1127,11.2844 151.1127,11.4194 C151.1127,11.5534 151.0577,11.9314 150.9237,13.0924 C150.8697,13.5514 150.8157,14.4684 150.8157,14.6314 C150.8157,14.8204 150.7887,15.1434 150.5727,15.1434 C150.4107,15.1434 150.3567,15.0624 150.3567,14.9554 C150.3297,14.7124 150.3297,14.4154 150.2757,14.1184 C150.1407,13.6594 149.8447,13.3084 148.9527,13.2274 C148.5207,13.1734 145.8217,13.1194 145.2277,13.1194 C145.1197,13.1194 145.0937,13.2274 145.0937,13.3624 L145.0937,15.1984 C145.0937,15.9804 145.0657,17.9234 145.0937,18.5984 C145.1467,20.1644 145.8757,20.5154 148.3047,20.5154 C148.9267,20.5154 149.9257,20.4884 150.5457,20.2184 C151.1387,19.9484 151.4097,19.4634 151.5717,18.5174 C151.6257,18.2754 151.6787,18.1674 151.8417,18.1674 C152.0297,18.1674 152.0567,18.4644 152.0567,18.7074 C152.0567,19.2194 151.8687,20.7854 151.7327,21.2444 C151.5717,21.8384 151.3547,21.8384 150.4647,21.8384 C148.6827,21.8384 147.2527,21.8114 146.0927,21.7564 C144.9307,21.7304 144.0407,21.7034 143.3387,21.7034 C143.0687,21.7034 142.5557,21.7304 141.9887,21.7304 C141.4227,21.7564 140.8287,21.7844 140.3427,21.7844 C140.0457,21.7844 139.8837,21.7034 139.8837,21.5414 C139.8837,21.4334 139.9647,21.2974 140.2617,21.2974 C140.6117,21.2974 140.8827,21.2714 141.0977,21.2164 C141.5847,21.1094 141.7197,20.6774 141.8007,20.0034 C141.9077,19.0314 141.9077,17.2224 141.9077,15.1174 L141.9077,11.0684 Z" id="Fill-16" fill="#231916"></path>
        </g>
    </g>
</svg>